HIERARCHY
ROOT locator2
{
  OFFSET 53.6172 30.1899 0.816905
  CHANNELS 6 Xposition Yposition Zposition Zrotation Xrotation Yrotation
  JOINT koshi
  {
    OFFSET 0 0 0
    CHANNELS 6 Xposition Yposition Zposition Zrotation Xrotation Yrotation
    JOINT sippo01
    {
      OFFSET 0 42.8363 -0.548134
      CHANNELS 6 Xposition Yposition Zposition Zrotation Xrotation Yrotation
      JOINT sippo02
      {
        OFFSET 0 44.0461 -3.28882
        CHANNELS 6 Xposition Yposition Zposition Zrotation Xrotation Yrotation
        JOINT sippo03
        {
          OFFSET 0 34.1929 -2.46662
          CHANNELS 6 Xposition Yposition Zposition Zrotation Xrotation Yrotation
          JOINT sippo04
          {
            OFFSET 0 30.0959 -1.75404
            CHANNELS 6 Xposition Yposition Zposition Zrotation Xrotation Yrotation
            JOINT sippo05
            {
              OFFSET 0 28.3637 -1.75404
              CHANNELS 6 Xposition Yposition Zposition Zrotation Xrotation Yrotation
              JOINT sippo06
              {
                OFFSET 0 31.6071 -3.2043
                CHANNELS 6 Xposition Yposition Zposition Zrotation Xrotation Yrotation
                End Site
                {
                  OFFSET 0 0 0
                }
              }
            }
          }
        }
      }
    }
    JOINT R_momo
    {
      OFFSET -27.891 13.5892 3.92723
      CHANNELS 6 Xposition Yposition Zposition Zrotation Xrotation Yrotation
      JOINT R_hiza
      {
        OFFSET 0 28.01 1.8232
        CHANNELS 6 Xposition Yposition Zposition Zrotation Xrotation Yrotation
        JOINT R_ashi
        {
          OFFSET 0 24.3992 -2.49174
          CHANNELS 6 Xposition Yposition Zposition Zrotation Xrotation Yrotation
          End Site
          {
            OFFSET 0 0 0
          }
        }
      }
    }
    JOINT L_momo
    {
      OFFSET 27.891 13.5892 3.92714
      CHANNELS 6 Xposition Yposition Zposition Zrotation Xrotation Yrotation
      JOINT L_hiza
      {
        OFFSET 0 28.0098 1.82319
        CHANNELS 6 Xposition Yposition Zposition Zrotation Xrotation Yrotation
        JOINT L_ashi
        {
          OFFSET 0 24.3992 -2.49171
          CHANNELS 6 Xposition Yposition Zposition Zrotation Xrotation Yrotation
          End Site
          {
            OFFSET 0 0 0
          }
        }
      }
    }
  }
  JOINT hara
  {
    OFFSET 0 2.15392 0
    CHANNELS 6 Xposition Yposition Zposition Zrotation Xrotation Yrotation
    JOINT mune
    {
      OFFSET 0 62.0609 0.472494
      CHANNELS 6 Xposition Yposition Zposition Zrotation Xrotation Yrotation
      JOINT R_kata
      {
        OFFSET 22.6695 9.65301 -5.3622
        CHANNELS 6 Xposition Yposition Zposition Zrotation Xrotation Yrotation
        JOINT R_hiji
        {
          OFFSET 0 25.813 1.69098
          CHANNELS 6 Xposition Yposition Zposition Zrotation Xrotation Yrotation
          JOINT R_te
          {
            OFFSET 0 28.5636 -0.966307
            CHANNELS 6 Xposition Yposition Zposition Zrotation Xrotation Yrotation
            End Site
            {
              OFFSET 0 0 0
            }
          }
        }
      }
      JOINT L_kata
      {
        OFFSET -22.6695 9.65298 -5.3622
        CHANNELS 6 Xposition Yposition Zposition Zrotation Xrotation Yrotation
        JOINT L_hiji
        {
          OFFSET 0 25.813 1.69102
          CHANNELS 6 Xposition Yposition Zposition Zrotation Xrotation Yrotation
          JOINT L_te
          {
            OFFSET 0 28.5636 -0.966295
            CHANNELS 6 Xposition Yposition Zposition Zrotation Xrotation Yrotation
            End Site
            {
              OFFSET 0 0 0
            }
          }
        }
      }
      JOINT kubi
      {
        OFFSET 0 23.1438 -0.944988
        CHANNELS 6 Xposition Yposition Zposition Zrotation Xrotation Yrotation
        JOINT atama
        {
          OFFSET 0 20.8625 4.12737
          CHANNELS 6 Xposition Yposition Zposition Zrotation Xrotation Yrotation
          JOINT ago
          {
            OFFSET 0 7.552 -7.58201
            CHANNELS 6 Xposition Yposition Zposition Zrotation Xrotation Yrotation
            End Site
            {
              OFFSET 0 0 0
            }
          }
        }
      }
    }
  }
}
MOTION
Frames:	6
Frame Time:	0.0333333
0 26.5759 -1.36988e-005 -90 -3.50835e-015 -90 0 0 0 -174.665 3.09322 0.499464 9.38773e-007 42.8363 -0.548134 2.96563 -15.9215 3.73709 7.15256e-007 44.0461 -3.28882 5.3986 9.40636 -5.26585 -5.72205e-006 34.1929 -2.46662 6.42515 1.07548 -1.69254 -9.53674e-006 30.0959 -1.75404 6.02178 9.41344 -0.735181 -3.8147e-006 28.3637 -1.75404 9.46118 -5.79654 5.77061 7.62939e-006 31.6072 -3.2043 5.23335 -6.13539 -5.40297 -27.891 13.5892 3.92723 117.515 -18.6598 -48.4374 1.14441e-005 28.01 1.8232 11.9998 -82.2903 -3.96533 7.10543e-015 24.3992 -2.49173 -149.825 63.0175 -167.604 27.891 13.5892 3.92714 -102.217 -21.3577 59.584 -7.10543e-015 28.0098 1.82319 -3.56596 -68.4938 9.58164 -3.8147e-006 24.3992 -2.49171 140.893 67.2516 166.768 6.07685e-007 2.15392 3.55271e-015 5.45549e-008 -0.411168 -5.45549e-008 1.75086e-005 62.0609 0.472494 -0 -7.59855e-017 -0 22.6695 9.65299 -5.3622 -148.408 2.7615 46.4986 0 25.813 1.69098 179.965 -77.8813 179.75 -7.10543e-015 28.5636 -0.966307 40.9946 13.2222 -94.3997 -22.6695 9.65298 -5.3622 130.762 -5.35445 -52.4181 0 25.813 1.69102 -179.768 -75.3122 -178.036 7.10543e-015 28.5636 -0.966303 -44.3036 34.5405 110.064 6.57604e-006 23.1438 -0.94499 5.12959e-007 -3.98466 -5.12959e-007 5.84788e-006 20.8625 4.12737 5.13008e-007 -3.98505 -5.13008e-007 2.17211e-006 7.55202 -7.582 -5.9084e-007 4.26975 5.9084e-007 
-0.0188825 26.5707 -0.0958869 -90 -3.50835e-015 -90 0 0 0 -174.897 3.32381 -0.311212 9.38773e-007 42.8363 -0.548134 2.65547 -15.8716 3.85465 7.73418e-007 44.0461 -3.28882 4.89553 8.83731 -4.69097 -5.61292e-006 34.1929 -2.46662 7.86883 1.52455 -0.860416 -9.41948e-006 30.0959 -1.75404 8.33123 9.63038 -1.25695 -3.5646e-006 28.3637 -1.75404 10.0589 -5.30037 5.77042 7.74113e-006 31.6072 -3.2043 5.50368 -5.67964 -5.90155 -27.891 13.5892 3.92723 117.663 -17.3923 -48.5455 1.14749e-005 28.01 1.8232 12.7995 -82.6521 -3.62473 1.58761e-008 24.3992 -2.49173 -150.047 63.239 -167.526 27.891 13.5892 3.92714 -102.298 -22.8487 59.3801 5.24103e-009 28.0098 1.82319 -3.31909 -67.64 8.96778 -3.80801e-006 24.3992 -2.49171 140.632 67.4716 166.986 6.07685e-007 2.15392 7.10543e-015 0.0940235 -0.251545 -0.370975 9.09814e-013 62.0609 0.472494 2.48481e-017 9.44227e-016 -9.93923e-017 22.6695 9.653 -5.3622 -148.421 1.76708 45.9997 -2.13163e-014 25.813 1.69098 179.962 -78.8914 179.658 2.77938e-009 28.5636 -0.966307 40.8318 12.7649 -94.4547 -22.6695 9.65298 -5.3622 130.938 -5.15518 -52.7189 -7.10543e-015 25.813 1.69102 -179.773 -74.9578 -177.94 0 28.5636 -0.966303 -44.3869 34.5905 110.562 -1.12965e-013 23.1438 -0.94499 -0.0559197 -3.98002 -0.53545 7.58671e-013 20.8625 4.12737 -0.101422 -3.92695 -0.522468 9.72147e-009 7.55202 -7.582 -6.83585e-007 3.9036 1.00412e-005 
-0.0373984 26.5657 -0.189899 -90 -3.50835e-015 -90 0 0 0 -175.125 3.55 -1.10522 9.38773e-007 42.8363 -0.548134 2.35158 -15.8223 3.97039 8.30466e-007 44.0461 -3.28882 4.40305 8.27634 -4.13555 -5.50349e-006 34.1929 -2.46662 9.28635 1.96118 -0.0652778 -9.30365e-006 30.0959 -1.75403 8.13861 9.89451 -1.36588 -3.50788e-006 28.3637 -1.75404 10.6464 -4.81363 5.76036 7.64109e-006 31.6072 -3.2043 5.76902 -5.23258 -6.39507 -27.891 13.5892 3.92723 117.759 -16.1599 -48.6592 1.15036e-005 28.01 1.8232 13.668 -83.0071 -3.20841 2.89583e-008 24.3992 -2.49173 -150.269 63.4584 -167.445 27.891 13.5892 3.92714 -102.309 -24.327 59.1909 1.33229e-008 28.0098 1.82319 -3.09407 -66.8032 8.34894 -3.79747e-006 24.3992 -2.49171 140.363 67.6926 167.21 6.07685e-007 2.15392 3.55271e-015 0.186784 -0.098383 -0.729986 0 62.0609 0.472494 8.74214e-034 5.0395e-016 -9.93923e-017 22.6695 9.653 -5.3622 -148.425 0.791623 45.5103 -2.13163e-014 25.813 1.69098 179.958 -79.8811 179.569 4.78248e-009 28.5636 -0.966307 40.6749 12.3125 -94.5114 -22.6695 9.65298 -5.3622 131.108 -4.96057 -53.0117 0 25.813 1.69102 -179.778 -74.6145 -177.848 -4.26326e-014 28.5636 -0.966303 -44.4689 34.6396 111.052 -4.54692e-013 23.1438 -0.94499 -0.107997 -3.97555 -1.05914 4.54747e-013 20.8625 4.12737 -0.203581 -3.86975 -1.03434 1.92869e-008 7.55202 -7.582 -1.0318e-012 3.54668 1.95462e-012 
-0.0560977 26.5606 -0.284841 -90 -3.50835e-015 -90 0 0 0 -175.355 3.77862 -1.90515 9.38773e-007 42.8363 -0.548134 2.04309 -15.7717 4.08846 8.8843e-007 44.0461 -3.28882 3.90912 7.71032 -3.5864 -5.39079e-006 34.1929 -2.46662 8.41859 3.22682 0.690254 -9.21604e-006 30.0959 -1.75403 7.94492 10.1598 -1.47364 -3.48027e-006 28.3637 -1.75404 11.239 -4.32396 5.74013 7.47112e-006 31.6072 -3.2043 6.03045 -3.98372 -6.98223 -27.891 13.5892 3.92723 118.133 -14.2595 -48.6545 1.15601e-005 28.01 1.8232 14.6375 -83.363 -2.69448 4.70211e-008 24.3992 -2.49173 -150.498 63.68 -167.36 27.891 13.5892 3.92714 -102.147 -25.8807 59.2432 3.33277e-008 28.0098 1.82319 -2.8827 -65.9573 7.70685 -3.79051e-006 24.3992 -2.49171 140.09 67.9123 167.439 6.07685e-007 2.15392 7.10543e-015 0.281932 0.0631945 -1.10014 5.55112e-017 62.0609 0.472494 -4.96962e-017 -1.10419e-015 9.93923e-016 22.6695 9.653 -5.3622 -148.418 -0.194048 45.0156 -1.42109e-014 25.813 1.69098 179.954 -80.883 179.479 6.11628e-009 28.5636 -0.966307 40.5203 11.8545 -94.5712 -22.6695 9.65298 -5.3622 131.28 -4.76019 -53.3123 0 25.813 1.69102 -179.783 -74.2635 -177.753 -2.84217e-014 28.5636 -0.966303 -44.5511 34.6886 111.544 -4.54747e-013 23.1438 -0.94499 -0.16355 -3.97098 -1.59089 4.54747e-013 20.8625 4.12737 -0.304389 -3.81217 -1.54995 2.88891e-008 7.55202 -7.582 -1.05903e-005 3.18192 1.05903e-005 
-0.0749802 26.5554 -0.380714 -90 -3.50835e-015 -90 0 0 0 -175.587 4.00935 -2.71015 9.38773e-007 42.8363 -0.548134 1.73193 -15.7202 4.20834 9.4695e-007 44.0461 -3.28882 3.41113 7.13656 -3.041 -5.27489e-006 34.1929 -2.46662 7.54361 4.51082 1.4934 -9.12599e-006 30.0959 -1.75403 7.76192 10.9355 -1.65093 -3.44959e-006 28.3637 -1.75404 10.8928 -3.84401 5.64636 7.57662e-006 31.6072 -3.2043 6.29635 -2.72402 -7.58662 -27.891 13.5892 3.92723 118.387 -12.3486 -48.6729 1.16139e-005 28.01 1.8232 15.728 -83.7203 -2.06391 5.87556e-008 24.3992 -2.49173 -150.734 63.9059 -167.269 27.891 13.5892 3.92714 -101.892 -27.4574 59.3902 5.81513e-008 28.0098 1.82319 -2.68371 -65.1021 7.04272 -3.78269e-006 24.3992 -2.49171 139.808 68.1336 167.677 6.07685e-007 2.15392 3.55271e-015 0.376356 0.219548 -1.46896 1.66533e-016 62.0609 0.472494 -1.49089e-016 -2.54848e-015 1.98785e-016 22.6695 9.653 -5.3622 -148.401 -1.18858 44.5166 0 25.813 1.69098 179.948 -81.8931 179.385 6.77896e-009 28.5636 -0.966307 40.3686 11.3925 -94.634 -22.6695 9.65298 -5.3622 131.453 -4.55681 -53.6166 0 25.813 1.69102 -179.788 -73.9091 -177.657 0 28.5636 -0.966303 -44.6347 34.7383 112.043 -4.54858e-013 23.1438 -0.94499 -0.218768 -3.96639 -2.12637 4.55191e-013 20.8625 4.12737 -0.407057 -3.754 -2.0704 3.85886e-008 7.55202 -7.582 -1.05231e-005 2.81791 1.05231e-005 
-0.0934961 26.5504 -0.474726 -90 -3.50835e-015 -90 0 0 0 -175.815 4.2359 -3.49847 9.38773e-007 42.8363 -0.548134 1.42525 -15.6689 4.32705 1.00466e-006 44.0461 -3.28882 2.92512 6.57355 -2.51654 -5.15932e-006 34.1929 -2.46662 6.68588 5.774 2.31883 -9.03695e-006 30.0959 -1.75403 7.58248 11.6987 -1.82039 -3.42004e-006 28.3637 -1.75404 10.5543 -3.37242 5.56001 7.68545e-006 31.6072 -3.2043 6.55966 -1.49028 -8.19041 -27.891 13.5892 3.92723 118.521 -10.4911 -48.7061 1.1663e-005 28.01 1.8232 16.9246 -84.0683 -1.3183 6.43063e-008 24.3992 -2.49173 -150.967 64.1252 -167.177 27.891 13.5892 3.92714 -101.481 -28.868 59.5976 8.66466e-008 28.0098 1.82319 -2.50079 -64.2635 6.37896 -3.76745e-006 24.3992 -2.49171 139.522 68.3527 167.918 6.07685e-007 2.15392 3.55271e-015 0.469993 0.37601 -1.83348 1.11022e-016 62.0609 0.472494 -9.93923e-017 3.23025e-016 -0 22.6695 9.653 -5.3622 -148.374 -2.16252 44.0288 0 25.813 1.69098 179.941 -82.8844 179.292 6.72692e-009 28.5636 -0.966307 40.2222 10.9341 -94.6983 -22.6695 9.65298 -5.3622 131.621 -4.35638 -53.9156 -2.13163e-014 25.813 1.69102 -179.792 -73.5636 -177.564 -2.13163e-014 28.5636 -0.966303 -44.7171 34.7869 112.534 -4.54747e-013 23.1438 -0.94499 -0.272626 -3.96193 -2.65149 4.55636e-013 20.8625 4.12737 -0.506817 -3.69715 -2.57924 4.80542e-008 7.55202 -7.582 -1.55463e-012 2.45885 1.56468e-012 
